# xmcd CD database file
#
# Track frame offsets:
#	182
#	14770
#	32195
#	45195
#	57595
#	77720
#	89770
#	103082
#	119545
#	135695
#	150870
#	166220
#	176395
#	188220
#	198307
#	208745
#	232507
#	242420
#	256295
#	266795
#	280282
#	289895
#	301645
#
# Disc length: 4270 seconds
#
# Revision: 0
# Processed by: cddbd v1.4PL0 Copyright (c) Steve Scherf et al.
# Submitted via: CDex 1.50beta9
#
DISCID=3c10ac17
DTITLE=Various Artist - IRISH FAVOURITES
DYEAR=1900
DGENRE=Country
TTITLE0=1 Slaney Valley-Larry Cuningham
TTITLE1=2 Galway Shawl-Dermot O'Brien
TTITLE2=3 A Village In Co.Tyrone-Philomena Begley
TTITLE3=4 Sing Irishmen Sing-The Barleycom
TTITLE4=5 I'll Take You Home Again Kathleen -Frank McCaffrey
TTITLE5=6 The Rose Of Tralee-D.J.Curart
TTITLE6=7 Far From Erne's Shore-Gene Stuart
TTITLE7=8 Black Velvet Band-Dermot Hegarty
TTITLE8=9 The Green Hills Of Kerry-Danny Doyle
TTITLE9=10 Beautiful City -Sean O'Se 
TTITLE10=11 Give An Irish Girl To Me-Brain Col
TTITLE11=12 Green Groves Of Erin-The Shannon
TTITLE12=13 Cherish The Ladies-Seamus Shannon
TTITLE13=14 Music In The Glen-Owenmore Ceili Band
TTITLE14=15 Reels-Bobby Gardiner
TTITLE15=16The New Broom-Bushwackers
TTITLE16=17 March Of The King Of Laois-Seamus Shannon
TTITLE17=18 Shaskeen-shaskeen
TTITLE18=19 Loughnames-Seamus Shannon
TTITLE19=20 Theme From Ben Hall-Bushwackers
TTITLE20=21 ride f ligo-wenmore ceili Band
TTITLE21=22 Hornpipes-Bobby Gardiner
TTITLE22=23 Tony Mulhaire's Jig-Shaskeen
EXTD=
EXTT0=
EXTT1=
EXTT2=
EXTT3=
EXTT4=
EXTT5=
EXTT6=
EXTT7=
EXTT8=
EXTT9=
EXTT10=
EXTT11=
EXTT12=
EXTT13=
EXTT14=
EXTT15=
EXTT16=
EXTT17=
EXTT18=
EXTT19=
EXTT20=
EXTT21=
EXTT22=
PLAYORDER=
